<?xml version="1.0" encoding="UTF-8"?>
<!DOCTYPE svg PUBLIC "-//W3C//DTD SVG 1.1//EN" "http://www.w3.org/Graphics/SVG/1.1/DTD/svg11.dtd">
<svg xmlns="http://www.w3.org/2000/svg" version="1.1" width="200px" height="152px" style="shape-rendering:geometricPrecision; text-rendering:geometricPrecision; image-rendering:optimizeQuality; fill-rule:evenodd; clip-rule:evenodd" xmlns:xlink="http://www.w3.org/1999/xlink">
<g><path style="opacity:0.004" fill="#7c6953" d="M 72.5,14.5 C 75.3965,14.1253 78.0632,14.6253 80.5,16C 78.0454,17.5403 75.3787,17.8736 72.5,17C 71.4019,16.2303 71.4019,15.397 72.5,14.5 Z"/></g>
<g><path style="opacity:0.778" fill="#fefefe" d="M 108.5,48.5 C 107.167,57.8333 107.167,67.1667 108.5,76.5C 108.666,84.84 108.5,93.1733 108,101.5C 107.627,105.285 106.461,108.785 104.5,112C 106.435,111.942 108.102,111.109 109.5,109.5C 111.587,108.415 112.92,106.749 113.5,104.5C 115.113,101.714 116.946,99.0472 119,96.5C 128.365,87.9668 137.531,79.3001 146.5,70.5C 148.044,70.2969 149.378,69.6302 150.5,68.5C 151.243,69.9079 152.077,71.2412 153,72.5C 152.402,75.0268 151.902,77.6934 151.5,80.5C 151.441,83.1094 152.108,85.4428 153.5,87.5C 147.98,92.745 142.314,97.745 136.5,102.5C 135.833,103.833 134.833,104.833 133.5,105.5C 122.846,114.156 112.512,123.156 102.5,132.5C 101.167,132.5 99.8333,132.5 98.5,132.5C 93.4882,127.49 88.1549,122.823 82.5,118.5C 81.5,116.833 80.1667,115.5 78.5,114.5C 68.4589,105.39 58.2923,96.39 48,87.5C 47.5007,82.5111 47.3341,77.5111 47.5,72.5C 47.4326,71.0413 47.7659,69.7079 48.5,68.5C 50.4147,68.2155 52.0813,68.5489 53.5,69.5C 63.1353,78.9667 72.9686,88.3 83,97.5C 85.3852,100.379 87.5518,103.379 89.5,106.5C 90.091,108.819 91.7577,110.819 94.5,112.5C 96.5567,112.043 96.5567,111.043 94.5,109.5C 94.7373,108.209 94.404,107.209 93.5,106.5C 91.8218,95.2408 91.1552,83.9075 91.5,72.5C 92.8279,67.7124 93.4946,62.5457 93.5,57C 93.3333,51.8333 93.1667,46.6667 93,41.5C 92.6174,40.944 92.1174,40.6107 91.5,40.5C 91.5,39.5 91.5,38.5 91.5,37.5C 87.813,23.6945 92.813,18.1945 106.5,21C 107,21.5 107.5,22 108,22.5C 108.5,31.1603 108.666,39.8269 108.5,48.5 Z M 113.5,104.5 C 112.92,106.749 111.587,108.415 109.5,109.5C 109.774,107.019 111.107,105.353 113.5,104.5 Z M 89.5,106.5 C 90.8333,106.5 92.1667,106.5 93.5,106.5C 94.404,107.209 94.7373,108.209 94.5,109.5C 94.5,110.5 94.5,111.5 94.5,112.5C 91.7577,110.819 90.091,108.819 89.5,106.5 Z"/></g>
<g><path style="opacity:0.004" fill="#7c6953" d="M 65.5,24.5 C 64.448,24.6495 63.448,24.4828 62.5,24C 63.7494,23.2599 64.7494,23.4265 65.5,24.5 Z"/></g>
<g><path style="opacity:0.006" fill="#78644d" d="M 91.5,37.5 C 91.5,38.5 91.5,39.5 91.5,40.5C 88.7349,40.9716 86.0683,40.9716 83.5,40.5C 81.8849,41.154 80.2182,41.654 78.5,42C 79.5,42.3333 80.5,42.6667 81.5,43C 77.1307,43.8423 72.7974,44.8423 68.5,46C 69.8333,46.3333 71.1667,46.6667 72.5,47C 70.567,47.2511 68.7337,47.7511 67,48.5C 65.2015,48.2795 63.3682,47.9461 61.5,47.5C 59.2473,48.7854 57.0806,49.7854 55,50.5C 53,50.5 51,50.5 49,50.5C 48.4236,53.1242 47.0902,53.7908 45,52.5C 44.0853,53.3279 43.4186,54.3279 43,55.5C 42.3333,54.1667 41.6667,54.1667 41,55.5C 38.3895,59.1329 37.3895,63.1329 38,67.5C 40.8432,69.7873 43.1766,69.1206 45,65.5C 46.5185,66.1634 47.6851,67.1634 48.5,68.5C 47.7659,69.7079 47.4326,71.0413 47.5,72.5C 40.8322,75.5158 38.8322,80.5158 41.5,87.5C 39.2245,94.2097 37.8911,100.876 37.5,107.5C 35.5853,107.784 33.9187,107.451 32.5,106.5C 31.448,106.649 30.448,106.483 29.5,106C 31,104.5 32.5,103 34,101.5C 34.3333,101.833 34.6667,102.167 35,102.5C 35.3283,99.7929 34.995,97.1262 34,94.5C 33.7679,95.7375 33.2679,96.7375 32.5,97.5C 32.5465,94.0722 33.7132,91.0722 36,88.5C 39.8094,75.8536 35.3094,69.1869 22.5,68.5C 22.5,66.5 22.5,64.5 22.5,62.5C 23.8333,62.5 25.1667,62.5 26.5,62.5C 26.5,61.5 26.5,60.5 26.5,59.5C 25.1667,59.5 23.8333,59.5 22.5,59.5C 22.1412,57.2341 22.8078,55.4007 24.5,54C 23.0267,53.2904 22.3601,52.1238 22.5,50.5C 23.8333,50.5 25.1667,50.5 26.5,50.5C 26.5,49.1667 26.5,47.8333 26.5,46.5C 27.5,46.5 28.5,46.5 29.5,46.5C 29.5,45.1667 29.5,43.8333 29.5,42.5C 31.1667,42.5 32.8333,42.5 34.5,42.5C 34.5,41.1667 34.5,39.8333 34.5,38.5C 43.8333,38.5 53.1667,38.5 62.5,38.5C 67.3434,37.942 72.1768,37.2754 77,36.5C 81.819,37.0911 86.6523,37.4245 91.5,37.5 Z M 32.5,106.5 C 32.9867,105.527 33.4867,104.527 34,103.5C 34.7252,105.157 34.2252,106.157 32.5,106.5 Z"/></g>
<g><path style="opacity:0.004" fill="#7b6852" d="M 156.5,46.5 C 157.525,46.8966 157.692,47.5632 157,48.5C 156.536,47.9056 156.369,47.2389 156.5,46.5 Z"/></g>
<g><path style="opacity:0.008" fill="#7d6954" d="M 146.5,70.5 C 137.531,79.3001 128.365,87.9668 119,96.5C 116.946,99.0472 115.113,101.714 113.5,104.5C 111.107,105.353 109.774,107.019 109.5,109.5C 108.102,111.109 106.435,111.942 104.5,112C 106.461,108.785 107.627,105.285 108,101.5C 108.5,93.1733 108.666,84.84 108.5,76.5C 110.858,77.1784 113.025,77.5117 115,77.5C 116.363,76.1072 117.196,74.4405 117.5,72.5C 116.929,67.4463 116.095,62.4463 115,57.5C 114.549,59.9288 113.715,60.0955 112.5,58C 112.957,57.586 113.291,57.086 113.5,56.5C 111.78,53.7984 110.113,51.1318 108.5,48.5C 108.666,39.8269 108.5,31.1603 108,22.5C 107.5,22 107,21.5 106.5,21C 92.813,18.1945 87.813,23.6945 91.5,37.5C 86.6523,37.4245 81.819,37.0911 77,36.5C 72.1768,37.2754 67.3434,37.942 62.5,38.5C 62.5,34.1667 62.5,29.8333 62.5,25.5C 63.791,25.7373 64.791,25.404 65.5,24.5C 66.7791,23.032 68.4458,22.3653 70.5,22.5C 70.5,21.1667 70.5,19.8333 70.5,18.5C 75.8333,18.5 81.1667,18.5 86.5,18.5C 86.5,19.8333 86.5,21.1667 86.5,22.5C 87.8333,22.5 89.1667,22.5 90.5,22.5C 90.5,21.1667 90.5,19.8333 90.5,18.5C 91.5,18.5 92.5,18.5 93.5,18.5C 93.5,17.5 93.5,16.5 93.5,15.5C 97.4631,14.56 101.463,14.3933 105.5,15C 109.147,19.9106 113.314,20.7439 118,17.5C 122.681,21.4662 127.848,24.7995 133.5,27.5C 134.599,31.1789 135.599,34.8455 136.5,38.5C 137.5,38.5 138.5,38.5 139.5,38.5C 139.5,39.8333 139.5,41.1667 139.5,42.5C 142.97,42.7105 142.97,43.8771 139.5,46C 141.901,46.805 141.734,47.6383 139,48.5C 137.636,47.7417 136.469,48.2417 135.5,50C 136.167,50.3333 136.833,50.6667 137.5,51C 135.606,52.1011 134.939,53.4345 135.5,55C 133.5,56 131.5,57 129.5,58C 129.833,58.3333 130.167,58.6667 130.5,59C 129.5,59.5 128.5,60 127.5,60.5C 126.833,62.8333 126.167,65.1667 125.5,67.5C 122.598,65.1971 121.764,66.1971 123,70.5C 125.178,67.5315 126.344,67.8649 126.5,71.5C 129.28,72.2293 132.113,72.896 135,73.5C 136.5,73.3333 138,73.1667 139.5,73C 141.593,71.5453 143.26,69.712 144.5,67.5C 145.176,68.6016 145.842,69.6016 146.5,70.5 Z M 118.5,66.5 C 119.289,66.7828 119.956,67.2828 120.5,68C 119.736,70.0693 119.236,72.236 119,74.5C 118.503,71.854 118.336,69.1873 118.5,66.5 Z"/></g>
<g><path style="opacity:0.004" fill="#7a6751" d="M 154.5,70.5 C 156.576,72.6698 156.743,75.0031 155,77.5C 154.503,75.1902 154.337,72.8568 154.5,70.5 Z"/></g>
<g><path style="opacity:0.03" fill="#7c6753" d="M 91.5,72.5 C 91.1552,83.9075 91.8218,95.2408 93.5,106.5C 92.1667,106.5 90.8333,106.5 89.5,106.5C 87.5518,103.379 85.3852,100.379 83,97.5C 72.9686,88.3 63.1353,78.9667 53.5,69.5C 54.1174,69.3893 54.6174,69.056 55,68.5C 57.9174,69.0478 60.9174,70.0478 64,71.5C 66.5919,71.399 69.2586,71.0657 72,70.5C 78.3419,72.2283 84.8419,72.895 91.5,72.5 Z"/></g>
<g><path style="opacity:0.004" fill="#7b6752" d="M 136.5,102.5 C 142.314,97.745 147.98,92.745 153.5,87.5C 154.29,86.3915 154.79,85.0581 155,83.5C 155.906,85.7438 156.406,88.0772 156.5,90.5C 155.562,93.8117 154.729,97.145 154,100.5C 153.311,101.357 152.478,102.023 151.5,102.5C 145.17,100.503 143.17,103.003 145.5,110C 144.552,110.483 143.552,110.649 142.5,110.5C 142.5,107.833 142.5,105.167 142.5,102.5C 140.389,103.38 138.389,103.38 136.5,102.5 Z"/></g>
<g><path style="opacity:0.004" fill="#7b6752" d="M 160.5,95.5 C 164.074,94.9079 166.074,96.4079 166.5,100C 164.5,103.333 162.5,103.333 160.5,100C 160.833,99.6667 161.167,99.3333 161.5,99C 160.5,98.6667 159.5,98.3333 158.5,98C 159.381,97.2917 160.047,96.4584 160.5,95.5 Z"/></g>
<g><path style="opacity:0.004" fill="#78654d" d="M 32.5,97.5 C 31.8333,98.1667 31.8333,98.1667 32.5,97.5 Z"/></g>
<g><path style="opacity:0.004" fill="#78654d" d="M 29.5,100.5 C 30.7733,101.077 30.7733,101.743 29.5,102.5C 28.537,102.03 28.537,101.363 29.5,100.5 Z"/></g>
<g><path style="opacity:0.004" fill="#79664e" d="M 22.5,103.5 C 26.0595,105.283 26.0595,106.283 22.5,106.5C 22.5,105.5 22.5,104.5 22.5,103.5 Z"/></g>
<g><path style="opacity:0.009" fill="#7c6853" d="M 133.5,105.5 C 132.974,110.412 133.641,115.078 135.5,119.5C 135.023,120.478 134.357,121.311 133.5,122C 135.134,122.494 136.801,122.66 138.5,122.5C 138.666,128.176 138.499,133.843 138,139.5C 137.311,140.357 136.478,141.023 135.5,141.5C 134.919,144.406 133.919,147.073 132.5,149.5C 131.5,149.5 130.5,149.5 129.5,149.5C 128.02,147.397 126.853,147.397 126,149.5C 124.677,146.104 122.511,143.437 119.5,141.5C 118.575,140.359 117.741,140.359 117,141.5C 116.683,139.699 116.016,139.366 115,140.5C 114.25,139.874 113.416,139.374 112.5,139C 112.833,138.667 113.167,138.333 113.5,138C 109.625,136.345 105.958,134.512 102.5,132.5C 112.512,123.156 122.846,114.156 133.5,105.5 Z"/></g>
<g><path style="opacity:0.008" fill="#7f6b56" d="M 47.5,72.5 C 47.3341,77.5111 47.5007,82.5111 48,87.5C 58.2923,96.39 68.4589,105.39 78.5,114.5C 78.5,115.833 78.5,117.167 78.5,118.5C 79.8333,118.5 81.1667,118.5 82.5,118.5C 88.1549,122.823 93.4882,127.49 98.5,132.5C 98.5,132.833 98.5,133.167 98.5,133.5C 97.8333,133.5 97.5,133.833 97.5,134.5C 95.8906,135.665 95.5573,136.999 96.5,138.5C 94.47,140.194 92.1367,141.527 89.5,142.5C 87.285,145.932 84.6184,148.932 81.5,151.5C 75.1667,151.5 68.8333,151.5 62.5,151.5C 61.4324,150.566 60.099,150.232 58.5,150.5C 58.5,149.167 58.5,147.833 58.5,146.5C 57.1667,146.5 55.8333,146.5 54.5,146.5C 54.5,145.5 54.5,144.5 54.5,143.5C 55.8734,143.657 57.2068,143.49 58.5,143C 56.5,142.667 54.5,142.333 52.5,142C 54.1667,141 55.8333,140 57.5,139C 57.1667,138.667 56.8333,138.333 56.5,138C 63.1081,136.706 68.4414,133.372 72.5,128C 72.1667,127.667 71.8333,127.333 71.5,127C 72.8333,126.667 74.1667,126.333 75.5,126C 74.2107,124.198 72.5441,123.031 70.5,122.5C 69.1155,121.199 67.6155,121.199 66,122.5C 64.9207,120.606 63.5874,120.273 62,121.5C 58.3926,117.278 53.8926,114.445 48.5,113C 45.5237,109.534 41.8571,107.701 37.5,107.5C 37.8911,100.876 39.2245,94.2097 41.5,87.5C 38.8322,80.5158 40.8322,75.5158 47.5,72.5 Z"/></g>
<g><path style="opacity:0.004" fill="#7d6a54" d="M 94.5,109.5 C 96.5567,111.043 96.5567,112.043 94.5,112.5C 94.5,111.5 94.5,110.5 94.5,109.5 Z"/></g>
<g><path style="opacity:0.004" fill="#7c6753" d="M 146.5,112.5 C 148.167,112.5 149.833,112.5 151.5,112.5C 151.665,115.85 151.498,119.183 151,122.5C 150.51,121.207 150.343,119.873 150.5,118.5C 149.167,118.5 147.833,118.5 146.5,118.5C 146.5,116.5 146.5,114.5 146.5,112.5 Z"/></g>
<g><path style="opacity:0.004" fill="#7c6953" d="M 70.5,122.5 C 70.1034,123.525 69.4368,123.692 68.5,123C 69.0944,122.536 69.7611,122.369 70.5,122.5 Z"/></g>
<g><path style="opacity:0.004" fill="#796550" d="M 98.5,134.5 C 98.5,134.167 98.5,133.833 98.5,133.5C 100.308,133.491 101.975,133.991 103.5,135C 101.803,135.384 100.137,135.218 98.5,134.5 Z"/></g>
<g><path style="opacity:0.004" fill="#796650" d="M 97.5,134.5 C 97.8333,134.5 98.1667,134.5 98.5,134.5C 98.5,134.833 98.5,135.167 98.5,135.5C 98.1667,135.167 97.8333,134.833 97.5,134.5 Z"/></g>
<g><path style="opacity:0.004" fill="#78654f" d="M 98.5,135.5 C 99.8333,136.167 99.8333,136.167 98.5,135.5 Z"/></g>
<g><path style="opacity:0.004" fill="#78654f" d="M 96.5,138.5 C 97.8333,139.167 97.8333,139.167 96.5,138.5 Z"/></g>
<g><path style="opacity:0.004" fill="#77644e" d="M 129.5,149.5 C 129.5,149.833 129.5,150.167 129.5,150.5C 128.83,150.019 128.83,149.685 129.5,149.5 Z"/></g>
<g><path style="opacity:0.004" fill="#78654f" d="M 132.5,149.5 C 133.239,149.369 133.906,149.536 134.5,150C 133.563,150.692 132.897,150.525 132.5,149.5 Z"/></g>
<g><path style="opacity:0.004" fill="#75624c" d="M 127.5,151.5 C 126.833,150.167 126.833,150.167 127.5,151.5 Z"/></g>
<g><path style="opacity:0.004" fill="#77644e" d="M 129.5,150.5 C 130.167,150.5 130.5,150.833 130.5,151.5C 130.167,151.167 129.833,150.833 129.5,150.5 Z"/></g>
</svg>
